<?xml version="1.0" encoding="UTF-8" standalone="no"?>
<svg
   xmlns="http://www.w3.org/2000/svg"
   viewBox="0 0 24 24"
   width="24"
   height="24"
   fill="#CE9452" stroke="#CCCCCC" stroke-width="1" stroke-linecap="round" stroke-linejoin="round"
  >
  <path
     d="m 20.287188,20.0 -4.89564,-7.93842 v -7.92992 c 0.43772,-0.25923 0.7182,-0.68845 0.7182,-1.17716 0,-0.80744 -0.7522,-1.44065 -1.70838,-1.44065 H 9.5992282 c -0.95618,0 -1.70838,0.63321 -1.70838,1.44065 0,0.48871 0.27623,0.91793 0.7182,1.17716 v 7.93417 l -4.89564,7.93417 c -0.27198,0.44197 -0.28473,0.97318 -0.034,1.42364 0.31873,0.56521 0.99443,0.91369 1.76362,0.91369 H 18.553318 c 0.76919,0 1.44489,-0.34848 1.76362,-0.91369 0.25498,-0.45046 0.24223,-0.98167 -0.0298,-1.42364 z"
      />
</svg>